<?xml version="1.0" encoding="UTF-8" standalone="no"?>
<svg
   xmlns:dc="http://purl.org/dc/elements/1.1/"
   xmlns:cc="http://creativecommons.org/ns#"
   xmlns:rdf="http://www.w3.org/1999/02/22-rdf-syntax-ns#"
   xmlns:svg="http://www.w3.org/2000/svg"
   xmlns="http://www.w3.org/2000/svg"
   xmlns:sodipodi="http://sodipodi.sourceforge.net/DTD/sodipodi-0.dtd"
   xmlns:inkscape="http://www.inkscape.org/namespaces/inkscape"
   version="1.1"
   viewBox="0 0 200.0 200.0"
   enable-background="new 0 0 470 470"
   id="svg8"
   sodipodi:docname="birthday-cake-edge-filled.svg"
   width="200.0mm"
   height="200.0mm"
   inkscape:version="0.92.4 (5da689c313, 2019-01-14)">
  <metadata
     id="metadata14">
    <rdf:RDF>
      <cc:Work
         rdf:about="">
        <dc:format>image/svg+xml</dc:format>
        <dc:type
           rdf:resource="http://purl.org/dc/dcmitype/StillImage" />
        <dc:title></dc:title>
      </cc:Work>
    </rdf:RDF>
  </metadata>
  <defs
     id="defs12" />
  <sodipodi:namedview
     pagecolor="#ffffff"
     bordercolor="#666666"
     borderopacity="1"
     objecttolerance="10"
     gridtolerance="10"
     guidetolerance="10"
     inkscape:pageopacity="0"
     inkscape:pageshadow="2"
     inkscape:window-width="1920"
     inkscape:window-height="1016"
     id="namedview10"
     showgrid="true"
     inkscape:zoom="5.1403607"
     inkscape:cx="367.59534"
     inkscape:cy="501.72782"
     inkscape:window-x="0"
     inkscape:window-y="27"
     inkscape:window-maximized="1"
     inkscape:current-layer="g56"
     borderlayer="true"
     inkscape:document-units="mm">
    <inkscape:grid
       spacingx="2.54"
       spacingy="2.54"
       empspacing="1"
       type="xygrid"
       units="mm"
       id="grid18" />
    <inkscape:grid
       id="grid3839"
       units="mm"
       type="xygrid"
       empspacing="1"
       spacingy="2.54"
       spacingx="2.54" />
    <inkscape:grid
       spacingx="2.54"
       spacingy="2.54"
       empspacing="1"
       type="xygrid"
       units="mm"
       id="grid3874" />
    <inkscape:grid
       id="grid39"
       units="mm"
       type="xygrid"
       empspacing="1"
       spacingy="2.54"
       spacingx="2.54" />
  </sodipodi:namedview>
  <g
     id="g26"
     sodipodi:insensitive="true"
     inkscape:groupmode="layer"
     inkscape:label="[fixed] BG"
     style="display:none">
    <rect
       id="rect24"
       style="fill:#ffffff;fill-opacity:1;stroke:none"
       height="200"
       width="200"
       y="0"
       x="0" />
  </g>
  <g
     id="g28"
     inkscape:groupmode="layer"
     inkscape:label="F.Cu"
     style="display:none" />
  <g
     id="g30"
     inkscape:groupmode="layer"
     inkscape:label="B.Cu-disabled"
     style="display:none" />
  <g
     id="g32"
     inkscape:groupmode="layer"
     inkscape:label="B.Adhes-disabled"
     style="display:none" />
  <g
     id="g34"
     inkscape:groupmode="layer"
     inkscape:label="F.Adhes-disabled"
     style="display:none" />
  <g
     id="g36"
     inkscape:groupmode="layer"
     inkscape:label="B.Paste-disabled"
     style="display:none" />
  <g
     id="g38"
     inkscape:groupmode="layer"
     inkscape:label="F.Paste-disabled"
     style="display:none" />
  <g
     id="g40"
     inkscape:groupmode="layer"
     inkscape:label="B.SilkS-disabled"
     style="display:none" />
  <g
     id="g42"
     inkscape:groupmode="layer"
     inkscape:label="F.SilkS-disabled"
     style="display:none" />
  <g
     id="g44"
     inkscape:groupmode="layer"
     inkscape:label="B.Mask-disabled"
     style="display:none" />
  <g
     id="g46"
     inkscape:groupmode="layer"
     inkscape:label="F.Mask-disabled"
     style="display:none" />
  <g
     id="g48"
     inkscape:groupmode="layer"
     inkscape:label="Dwgs.User-disabled"
     style="display:none" />
  <g
     id="g50"
     inkscape:groupmode="layer"
     inkscape:label="Cmts.User-disabled"
     style="display:none" />
  <g
     id="g52"
     inkscape:groupmode="layer"
     inkscape:label="Eco1.User-disabled"
     style="display:none" />
  <g
     id="g54"
     inkscape:groupmode="layer"
     inkscape:label="Eco2.User-disabled"
     style="display:none" />
  <g
     id="g58"
     inkscape:groupmode="layer"
     inkscape:label="Margin-disabled"
     style="display:none" />
  <g
     id="g60"
     inkscape:groupmode="layer"
     inkscape:label="B.CrtYd-disabled"
     style="display:none" />
  <g
     id="g62"
     inkscape:groupmode="layer"
     inkscape:label="F.CrtYd-disabled"
     style="display:none" />
  <g
     id="g64"
     inkscape:groupmode="layer"
     inkscape:label="B.Fab-disabled"
     style="display:none" />
  <g
     id="g66"
     inkscape:groupmode="layer"
     inkscape:label="F.Fab-disabled"
     style="display:none" />
  <g
     id="g68"
     inkscape:groupmode="layer"
     inkscape:label="Drill"
     style="display:none" />
  <g
     id="g56"
     inkscape:groupmode="layer"
     inkscape:label="Edge.Cuts"
     style="display:inline">
    <path
       style="stroke-width:0.46828812"
       d="m 358.52539,180.8125 c -0.47905,6e-5 -0.95787,0.0972 -1.40625,0.29297 -12.32534,5.38672 -20.93359,17.07682 -20.93359,28.42578 0,5.48178 2.01454,10.75545 5.67187,14.85156 0.47071,0.52791 5.95878,6.32849 9.76758,10.03711 -3.44337,0.97044 -5.97656,4.13345 -5.97656,7.88281 v 31.9336 h -57.6211 c -12.26494,0 -22.24218,9.9792 -22.24218,22.24414 v 81.01367 h -13.79493 c -1.93965,0 -3.51171,1.57207 -3.51171,3.51172 0,1.93965 1.57206,3.51172 3.51171,3.51172 h 2.03321 l 2.02539,7.08789 c 1.49008,5.21578 6.90739,9.30273 12.33203,9.30273 h 180.29102 c 5.42464,0 10.83999,-4.08545 12.33007,-9.30078 l 2.02539,-7.08984 h 2.03321 c 1.93965,0 3.51367,-1.57207 3.51367,-3.51172 0,-1.93965 -1.57402,-3.51172 -3.51367,-3.51172 H 448.26172 V 310.5332 296.48047 c 0,-12.26494 -9.9792,-22.24414 -22.24414,-22.24414 H 371.4043 v -31.9336 c 0,-4.03445 -2.93496,-7.38821 -6.7793,-8.0625 4.33936,-3.61054 9.76516,-8.95787 10.56836,-9.85742 3.6573,-4.09611 5.67187,-9.36978 5.67187,-14.85156 0,-11.34896 -8.60825,-23.03906 -20.93359,-28.42578 -0.44838,-0.19598 -0.92719,-0.29303 -1.40625,-0.29297 z"
       transform="scale(0.26458333)"
       id="path92"
       inkscape:connector-curvature="0" />
    <path
       style="stroke-width:0.46828812"
       d="m 358.52539,188.19922 c 9.08806,4.51945 15.31641,13.10655 15.31641,21.33203 0,3.7538 -1.38044,7.36644 -3.88672,10.17383 -0.77455,0.86717 -4.96777,6.59447 -7.91797,11.34375 v -7.47656 c 0,-1.93965 -1.57207,-3.51368 -3.51172,-3.51368 -1.93965,0 -3.51172,1.57403 -3.51172,3.51368 v 6.24218 c -3.22842,-4.45512 -7.20945,-9.31785 -7.91601,-10.10937 -2.50674,-2.80739 -3.88672,-6.42003 -3.88672,-10.17383 0,-8.22501 6.22639,-16.81211 15.31445,-21.33203 z"
       transform="scale(0.26458333)"
       id="path90"
       inkscape:connector-curvature="0" />
    <path
       style="stroke-width:0.46828812"
       d="m 353.8418,241.13281 h 3.51953 c 0.14568,0.0457 0.28435,0.0457 0.41406,0 h 5.43359 c 0.63455,0 1.16993,0.53539 1.16993,1.16992 v 31.9336 h -11.70703 v -31.9336 c 0,-0.63453 0.53537,-1.16992 1.16992,-1.16992 z"
       transform="scale(0.26458333)"
       id="path88"
       inkscape:connector-curvature="0" />
    <path
       style="stroke-width:0.46828812"
       d="m 288.02734,281.25977 h 137.99024 c 8.39172,0 15.21875,6.82898 15.21875,15.2207 V 307.25 c -6.35138,0.85181 -10.05467,3.95268 -13.3711,6.74414 -3.53695,2.97691 -6.3312,5.32813 -12.36132,5.32813 -6.03016,0 -8.82388,-2.35122 -12.36133,-5.32813 -3.88634,-3.27099 -8.29216,-6.97852 -16.88477,-6.97852 -8.5917,0 -12.99456,3.70706 -16.88086,6.97852 -3.53654,2.97691 -6.33065,5.32813 -12.35937,5.32813 -6.02922,0 -8.82242,-2.35122 -12.35938,-5.32813 -3.88633,-3.27099 -8.29111,-6.97852 -16.88281,-6.97852 -8.5917,0 -12.99456,3.70706 -16.88086,6.97852 -2.07734,1.74859 -4.04113,3.40104 -6.58203,4.36524 -1.36365,0.51745 -2.26562,1.82401 -2.26562,3.2832 v 24.01758 c 0,1.93684 -1.57487,3.51172 -3.51172,3.51172 -1.93637,0 -3.51172,-1.57488 -3.51172,-3.51172 v -23.90235 c 0.0491,-1.48026 -0.84382,-2.85748 -2.26367,-3.39648 -2.5414,-0.96467 -4.50469,-2.61813 -6.58204,-4.36719 -3.31593,-2.79146 -7.01866,-5.89233 -13.36914,-6.74414 v -10.76953 c 5e-4,-8.39172 6.82654,-15.2207 15.21875,-15.2207 z"
       transform="scale(0.26458333)"
       id="path86"
       inkscape:connector-curvature="0" />
    <path
       style="stroke-width:0.46828812"
       d="m 327.77734,314.04102 c 6.02922,0 8.82287,2.35121 12.35938,5.32812 3.88634,3.27099 8.29115,6.97852 16.88281,6.97852 8.5917,0 12.99501,-3.70706 16.88086,-6.97852 3.5365,-2.97691 6.33061,-5.32812 12.35938,-5.32812 6.03012,0 8.82437,2.35075 12.36132,5.32812 3.88634,3.271 8.29021,6.97852 16.88282,6.97852 8.59264,0 12.99797,-3.70752 16.88476,-6.97852 2.76711,-2.32879 5.0869,-4.26878 8.84961,-5.00586 v 63.13086 H 272.80859 v -63.13086 c 3.76128,0.73708 6.07955,2.67706 8.84571,5.00586 1.81273,1.52568 3.81463,3.21092 6.3457,4.53711 v 21.75391 c 0,5.81005 4.72707,10.53515 10.53711,10.53515 5.81004,0 10.53516,-4.7251 10.53516,-10.53515 l 0.002,-21.75391 c 2.53066,-1.32619 4.53147,-3.01143 6.34375,-4.53711 3.5365,-2.97691 6.33061,-5.32812 12.35937,-5.32812 z"
       transform="scale(0.26458333)"
       id="path84"
       inkscape:connector-curvature="0" />
    <path
       style="stroke-width:0.46828812"
       d="m 261.33008,384.51758 h 194.39258 l -1.47461,5.16015 c -0.62892,2.20143 -3.28673,4.20508 -5.57617,4.20508 H 268.38086 c -2.2899,0 -4.94921,-2.00365 -5.57813,-4.20508 z"
       transform="scale(0.26458333)"
       id="path2"
       inkscape:connector-curvature="0" />
  </g>
</svg>
